<svg xmlns="http://www.w3.org/2000/svg" xmlns:xlink="http://www.w3.org/1999/xlink" version="1.1" id="Layer_1" x="0px" y="0px" width="72px" height="72px" viewBox="0 0 72 72" enable-background="new 0 0 72 72" xml:space="preserve">
<g>
	<path fill="#000000" d="M17.345,14.579c0.009,0,0.018-0.002,0.027-0.003c0.009,0,0.018,0.003,0.027,0.003   c2.881,0,5.218-2.337,5.218-5.219c0-2.882-2.337-5.218-5.218-5.218c-0.009,0-0.018,0.003-0.027,0.003s-0.018-0.003-0.027-0.003   c-2.882,0-5.219,2.336-5.219,5.218C12.126,12.242,14.463,14.579,17.345,14.579z"/>
	<path fill="#000000" d="M27.398,20.947c-0.551-1.655-2.028-4.656-5.67-4.656h-8.81c-3.675,0-5.143,2.978-5.621,4.656l-4.47,14.721   c-0.929,3.165,3.129,4.377,4.088,1.424l4.026-13.551h0.027l0.469,5.774l-2.659,13.66l2.776,1.464l0.001,21.341   c0,4.188,4.823,4.188,4.823,0l-0.002-19.305h1.958v19.34c0,4.132,4.802,4.152,4.802,0V44.438l2.776-1.464h-0.001l-2.505-12.873   l0.493-6.08l3.882,13.021c0.959,3.083,4.983,1.773,4.091-1.391L27.398,20.947z"/>
	<path fill="#000000" d="M61.67,15.443l-12.103-0.005c-3.823,0-6.219,3.117-6.219,7.007v16.578c0,3.222,4.258,3.222,4.258,0V22.888   h1.355l-0.006,43.784c0,1.67,1.356,3.026,3.026,3.026c1.675,0,3.028-1.356,3.028-3.026l0.003-25.397h1.348l-0.008,25.397   c0,1.67,1.355,3.026,3.027,3.026s3.025-1.356,3.025-3.026l0.008-25.742c0.957,0.069,2.048-0.667,2.517-2.184l3.042-7.809v-8.394   C67.973,18.958,65.865,15.443,61.67,15.443z M63.748,30.522L62.416,34l0.004-11.113h1.328V30.522z"/>
	<path fill="#000000" d="M55.661,13.851c2.883,0,5.218-2.337,5.218-5.219c0-0.371-0.041-0.731-0.114-1.08   c0.812-0.943,1.32-2.155,1.32-3.497c0-0.652-0.122-1.275-0.334-1.853c-0.386,0.597-0.888,1.112-1.474,1.516   c0.062-0.327,0.098-0.663,0.098-1.007c0-0.652-0.122-1.275-0.335-1.854c-0.339,0.526-0.77,0.987-1.265,1.366   c-0.014-0.61-0.13-1.196-0.329-1.741c-0.377,0.583-1.217,1.827-2.437,2.967c-0.117-0.008-0.229-0.035-0.349-0.035   c-2.882,0-5.218,2.336-5.218,5.219C50.443,11.514,52.779,13.851,55.661,13.851z"/>
</g>
</svg>