<svg xmlns="http://www.w3.org/2000/svg" xmlns:xlink="http://www.w3.org/1999/xlink" version="1.1" id="Your_Icon" x="0px" y="0px" width="100px" height="100px" viewBox="0 0 100 100" enable-background="new 0 0 100 100" xml:space="preserve">
<g>
	<g>
		<g>
			<g>
			</g>
		</g>
		<g>
		</g>
	</g>
</g>
<path fill="#000000" d="M49.99,5.002c-4.232,0-7.661,3.423-7.661,7.654c0,4.221,3.429,7.644,7.661,7.644  c4.214,0,7.637-3.423,7.637-7.644C57.628,8.425,54.204,5.002,49.99,5.002z"/>
<path fill="#000000" d="M62.633,28.248c-1.875-3.834-4.782-6.166-11.922-6.166h-0.733h-0.732c-7.139,0-10.047,2.333-11.922,6.166  c-0.939,1.917-2.913,25.896-2.913,25.896c-0.152,1.419,0.873,2.685,2.286,2.826c0.094,0.012,0.182,0.012,0.275,0.012  c1.301,0,2.42-0.979,2.55-2.298l2.016-20.838l0.499,16.178l-1.471,41.802c-0.105,1.648,1.137,3.09,2.784,3.195  c0.087,0.012,0.152,0.012,0.211,0.012c1.571,0,2.895-1.207,3.013-2.79l3.405-34.43l3.406,34.43c0.117,1.583,1.442,2.79,3.013,2.79  c0.058,0,0.123,0,0.211-0.012c1.647-0.105,2.889-1.548,2.784-3.195L57.92,50.023l0.499-16.178l2.016,20.838  c0.13,1.319,1.249,2.298,2.55,2.298c0.094,0,0.182,0,0.275-0.012c1.413-0.14,2.439-1.406,2.286-2.826  C65.546,54.144,63.571,30.165,62.633,28.248z"/>
<path fill="#000000" d="M74.366,26.078c6.775,4.091,11.86,10.937,13.531,19.344c2.319,11.667-2.69,23.069-11.825,29.507  l-3.491-7.484l-5.588,15.562l15.439,5.554l-3.666-7.859C90.453,73.012,96.945,58.767,94.049,44.2  c-2.107-10.599-8.739-19.145-17.488-24.03"/>
<path fill="#000000" d="M25.549,80.397c-6.826-4.081-11.965-10.922-13.637-19.338c-2.32-11.668,2.69-23.069,11.825-29.507  l3.49,7.483l5.588-15.562l-15.438-5.553l3.666,7.858C9.356,33.468,2.865,47.714,5.761,62.281  c2.123,10.682,8.843,19.28,17.695,24.145"/>
</svg>