<svg xmlns="http://www.w3.org/2000/svg" xmlns:xlink="http://www.w3.org/1999/xlink" version="1.1" id="Layer_1" x="0px" y="0px" width="100px" height="100px" viewBox="0 0 100 100" enable-background="new 0 0 100 100" xml:space="preserve">
<g id="Captions">
	<text transform="matrix(1 0 0 1 87.2129 -19.5)" font-family="'Helvetica'" font-size="2.4">S&#233;vag+Tina</text>
</g>
<line fill="none" stroke="#000000" stroke-width="0.25" stroke-miterlimit="10" x1="100" y1="-18.346" x2="87.213" y2="-18.346"/>
<g>
	<rect x="16.667" y="40.477" width="7.143" height="11.904"/>
	<rect x="28.571" y="40.477" width="7.143" height="11.904"/>
	<rect x="40.477" y="40.477" width="7.143" height="11.904"/>
	<rect x="52.381" y="40.477" width="7.143" height="11.904"/>
	<rect x="64.286" y="40.477" width="7.143" height="11.904"/>
	<rect x="76.19" y="40.477" width="7.143" height="11.904"/>
	<rect x="16.667" y="57.145" width="7.143" height="11.904"/>
	<rect x="28.571" y="57.145" width="7.143" height="11.904"/>
	<rect x="40.477" y="57.145" width="7.143" height="11.904"/>
	<rect x="52.381" y="57.145" width="7.143" height="11.904"/>
	<rect x="64.286" y="57.145" width="7.143" height="11.904"/>
	<rect x="76.19" y="57.145" width="7.143" height="11.904"/>
	<rect x="16.667" y="73.811" width="66.667" height="2.381"/>
	<rect x="16.667" y="80.953" width="7.143" height="11.904"/>
	<rect x="28.571" y="80.953" width="7.143" height="11.904"/>
	<rect x="40.477" y="80.953" width="7.143" height="11.904"/>
	<rect x="52.381" y="80.953" width="7.143" height="11.904"/>
	<rect x="64.286" y="80.953" width="7.143" height="11.904"/>
	<rect x="76.19" y="80.953" width="7.143" height="11.904"/>
	<path d="M90.477,97.619V35.715h4.762v-4.762H4.762v4.762h4.762v61.904H0V100h100v-2.381H90.477z M11.905,97.619V35.715h76.191   v61.904H11.905z"/>
	<rect x="48.81" y="16.667" width="2.381" height="14.286"/>
	<polygon points="51.19,23.811 51.19,16.667 63.096,16.667 58.333,20.239 63.096,23.811  "/>
</g>
</svg>