<svg xmlns="http://www.w3.org/2000/svg" xmlns:xlink="http://www.w3.org/1999/xlink" version="1.1" x="0px" y="0px" width="100px" height="100px" viewBox="0 0 100 100" enable-background="new 0 0 100 100" xml:space="preserve">
<g id="Captions">
</g>
<g id="Your_Icon">
	<path fill="#000000" d="M65.42,35.552c0.625-0.776,1.015-1.749,1.015-2.822c0-2.503-2.045-4.539-4.571-4.539   c-2.52,0-4.572,2.036-4.572,4.539c0,0.248,0.035,0.486,0.073,0.723c-0.042-0.235-0.073-0.474-0.073-0.723   c0-0.105,0.023-0.201,0.029-0.303c-6.894-0.593-17.354-1.442-21.307-1.542c-0.34-2.167-2.227-3.827-4.513-3.827   c-2.523,0-4.565,2.029-4.565,4.539c0,2.503,2.042,4.539,4.565,4.539c0.444,0,0.853-0.112,1.258-0.23   c-0.771,0.81-1.248,1.897-1.248,3.1c0,2.513,2.046,4.542,4.565,4.542c2.526,0,4.568-2.029,4.568-4.542   c0-0.254-0.026-0.511-0.069-0.758l18.6,1.319c-0.003,0.064-0.02,0.125-0.02,0.189c0,2.506,2.042,4.535,4.565,4.535   c2.526,0,4.568-2.029,4.568-4.535C68.289,37.846,67.101,36.221,65.42,35.552z M40.081,36.824c-0.774-1.403-2.276-2.358-4.005-2.358   c-0.451,0-0.88,0.085-1.295,0.208c0.629-0.662,1.101-1.476,1.238-2.415c3.377,0.096,13.129,0.86,21.42,1.568   c-0.001-0.004-0.002-0.008-0.003-0.013c0.354,1.427,1.38,2.586,2.731,3.124c-0.305,0.378-0.55,0.801-0.721,1.264L40.081,36.824z"/>
	<path fill="#000000" d="M63.721,89.377c-2.345,0-4.251,1.761-4.513,4.021c-6.799,0.236-14.453,0.466-19.799,0.571   c1.09-0.646,1.864-1.736,2.121-3.018c0.438,0.139,0.876,0.276,1.36,0.276c2.049,0,3.778-1.344,4.357-3.188   c1.4,0.127,3.024,0.277,4.562,0.421c0.4,2.098,2.243,3.687,4.479,3.687c2.522,0,4.565-2.032,4.565-4.538   c0-2.507-2.043-4.543-4.565-4.543c-2.342,0-4.237,1.75-4.511,3.997c-1.418-0.133-2.956-0.273-4.323-0.394   c0-0.013-0.007-0.02-0.007-0.029c-0.151,0.017-0.303,0.046-0.461,0.046c-0.312,0-0.618-0.031-0.912-0.092   c0.295,0.06,0.6,0.092,0.912,0.092c2.529,0,4.578-2.032,4.578-4.542c0-0.608-0.125-1.188-0.345-1.719   c0.722,1.555,2.296,2.641,4.13,2.641c2.529,0,4.574-2.032,4.574-4.538c0-2.507-2.045-4.539-4.574-4.539   c-1.789,0-3.33,1.031-4.081,2.522c-1.996-0.389-4.246-0.823-6.077-1.146c0.003,0.059,0.017,0.111,0.017,0.171   c0,0.24-0.029,0.473-0.071,0.7c0.036-0.229,0.071-0.461,0.071-0.7c0-2.032-1.348-3.73-3.196-4.312   c0.004,0.001,0.007,0.002,0.011,0.003c5.201-0.19,11.219-0.395,15.349-0.533c0.405,2.099,2.257,3.689,4.49,3.689   c2.517,0,4.571-2.036,4.571-4.543c0-2.506-2.055-4.538-4.571-4.538c-2.346,0-4.275,1.752-4.539,4.008   c-5.896,0.198-15.581,0.527-21.342,0.765c-0.279-1.349-1.172-2.461-2.365-3.083c1.456-0.761,2.459-2.26,2.459-4.005   c0-2.511-2.046-4.539-4.575-4.539c-2.523,0-4.565,2.028-4.565,4.539c0,1.745,1.001,3.244,2.454,4.005   c-1.453,0.759-2.454,2.257-2.454,4.002c0,2.507,2.042,4.542,4.565,4.542c2.369,0,4.291-1.792,4.528-4.077   c0.872-0.033,1.823-0.073,2.85-0.112c0.034-0.014,0.072-0.02,0.107-0.032c-1.701,0.66-2.91,2.296-2.91,4.222   c0,2.503,2.031,4.539,4.555,4.539c2.1,0,3.369-1.418,4.369-3.334c0,0.001,0,0.003,0,0.004c2,0.3,3.78,0.698,5.836,1.097   c-0.033,0.228-0.053,0.455-0.053,0.686c0,0.609,0.128,1.188,0.347,1.716c-0.728-1.554-2.302-2.639-4.144-2.639   c-2.523,0-4.558,2.036-4.558,4.539c0,0.031,0.01,0.06,0.01,0.091c-1.986,0.205-3.527,1.639-3.932,3.546   c-0.451-0.146-0.923-0.247-1.42-0.247c-2.332,0-4.256,1.732-4.539,3.969c-0.336-0.079-0.685-0.125-1.047-0.125   c-2.523,0-4.565,2.032-4.565,4.539c0,2.51,2.042,4.538,4.565,4.538c2.003,0,3.698-1.274,4.318-3.05   c0.517-0.003,1.103-0.007,1.774-0.02c2.633-0.036,6.288-0.129,10.857-0.257c3.922-0.114,7.843-0.244,10.792-0.347   c0.406,2.094,2.252,3.673,4.478,3.673c2.526,0,4.568-2.028,4.568-4.538C68.289,91.409,66.247,89.377,63.721,89.377z M41.391,71.068   c-0.244-0.04-0.49-0.074-0.746-0.074C40.9,70.994,41.148,71.023,41.391,71.068z M45.443,86.4c-0.068-0.024-0.144-0.037-0.211-0.065   C45.3,86.363,45.375,86.376,45.443,86.4z"/>
	<path fill="#000000" d="M50.879,23.605c1.25-0.811,2.081-2.206,2.081-3.797c0-2.51-2.052-4.539-4.575-4.539   c-1.021,0-1.956,0.346-2.718,0.91c-1.249,0.811-2.078,2.207-2.078,3.797c0,2.506,2.046,4.542,4.572,4.542   C49.184,24.519,50.118,24.171,50.879,23.605z"/>
	<path fill="#000000" d="M34.445,11.083c2.52,0,4.572-2.036,4.572-4.542c0,0.168-0.033,0.326-0.05,0.491l21.216,1.041   c-0.066,0.31-0.103,0.632-0.103,0.961c0,0.573,0.118,1.113,0.312,1.621c-0.593-0.283-1.234-0.464-1.933-0.464   c-2.197,0-4.032,1.538-4.474,3.59c-2.948-0.293-7.434-0.728-9.146-0.86c0.005,0.016,0.007,0.032,0.012,0.047   c-0.558-1.882-2.286-3.262-4.363-3.262c-2.52,0-4.565,2.029-4.565,4.539c0,2.507,2.046,4.536,4.565,4.536   c2.526,0,4.568-2.029,4.568-4.536c0-0.252-0.035-0.495-0.074-0.736c0.044,0.239,0.074,0.483,0.074,0.736   c0,0.026-0.006,0.053-0.006,0.083c1.68,0.135,5.447,0.5,8.856,0.836c0.221,2.302,2.178,4.107,4.553,4.107   c2.52,0,4.559-2.036,4.559-4.539c0-0.573-0.136-1.107-0.326-1.614c0.596,0.283,1.255,0.455,1.959,0.455   c2.527,0,4.569-2.029,4.569-4.539c0-2.506-2.042-4.539-4.569-4.539c-1.67,0-3.125,0.889-3.922,2.217L38.926,5.642   c-0.421-2.076-2.271-3.643-4.48-3.643c-2.526,0-4.562,2.035-4.562,4.542C29.884,9.047,31.919,11.083,34.445,11.083z"/>
	<path fill="#000000" d="M61.626,46.755c0-2.51-2.042-4.539-4.562-4.539c-2.236,0-4.086,1.59-4.484,3.695l-5.73-1.485   C46.35,42.46,44.564,41,42.43,41c-2.523,0-4.575,2.033-4.575,4.542c0,2.506,2.052,4.536,4.575,4.536   c2.404,0,4.367-1.841,4.549-4.187l5.575,1.442c0.065,0.501,0.206,0.974,0.422,1.41c-0.824-0.803-1.949-1.297-3.19-1.297   c-2.527,0-4.575,2.029-4.575,4.539c0,2.507,2.048,4.539,4.575,4.539c2.52,0,4.568-2.032,4.568-4.539   c0-0.718-0.185-1.387-0.481-1.989l0,0c0.823,0.8,1.947,1.298,3.192,1.298C59.584,51.294,61.626,49.258,61.626,46.755z"/>
	<path fill="#000000" d="M39.011,19.977c-2.517,0-4.562,2.036-4.562,4.542s2.045,4.539,4.562,4.539c1.986,0,3.669-1.255,4.305-3.007   c2.088,0.223,5.14,0.563,8.268,0.917c0.579,1.842,2.286,3.191,4.338,3.191c2.523,0,4.562-2.036,4.562-4.539   c0-2.51-2.038-4.542-4.562-4.542c-2.505,0-4.52,1.996-4.559,4.472c-2.726-0.31-5.661-0.638-7.78-0.862   c0-0.059,0.007-0.112,0.007-0.168C43.589,22.012,41.54,19.977,39.011,19.977z"/>
	<path fill="#000000" d="M56.734,61.083c0.731,1.531,2.299,2.596,4.121,2.596c2.526,0,4.574-2.032,4.574-4.539   c0-2.51-2.048-4.539-4.574-4.539c-2.523,0-4.565,2.029-4.565,4.539c0,0.204,0.02,0.402,0.046,0.593   c-3.795,0.481-8.54,1.08-12.864,1.641c1.052-0.832,1.738-2.101,1.738-3.538c0-2.51-2.043-4.542-4.565-4.542   c-2.523,0-4.568,2.032-4.568,4.542c0,1.853,1.123,3.443,2.727,4.147c-1.006,0.135-1.944,0.26-2.789,0.379   c0.026,0.204,0.062,0.408,0.062,0.626c0,0.263-0.036,0.514-0.076,0.767C40.819,63.096,49.274,62.019,56.734,61.083z M41.482,62.29   c-0.271,0.052-0.551,0.084-0.838,0.084C40.932,62.374,41.21,62.34,41.482,62.29z M42.889,61.765   c-0.032,0.019-0.065,0.035-0.098,0.053C42.824,61.8,42.856,61.783,42.889,61.765z M42.23,62.076   c-0.099,0.038-0.202,0.063-0.305,0.094C42.028,62.141,42.131,62.113,42.23,62.076z"/>
</g>
</svg>